<?xml version="1.0" standalone="no"?>
<!DOCTYPE svg PUBLIC "-//W3C//DTD SVG 20010904//EN"
 "http://www.w3.org/TR/2001/REC-SVG-20010904/DTD/svg10.dtd">
<svg version="1.0" xmlns="http://www.w3.org/2000/svg"
 width="64.000000pt" height="64.000000pt" viewBox="0 0 64.000000 64.000000"
 preserveAspectRatio="xMidYMid meet">

<g transform="translate(0.000000,64.000000) scale(0.100000,-0.100000)"
fill="#000000" stroke="none">
<path d="M133 513 c-13 -2 -32 -16 -43 -30 -18 -23 -20 -40 -20 -164 0 -131 1
-139 24 -166 l24 -28 145 0 c140 0 146 1 171 24 49 46 26 139 -27 110 -9 -6
-17 -21 -17 -34 l0 -25 -125 0 -125 0 0 120 0 120 125 0 125 0 0 -25 c0 -31
34 -52 56 -34 24 20 18 82 -12 110 -24 23 -33 24 -152 26 -70 0 -137 -1 -149
-4z"/>
<path d="M500 365 c0 -12 -17 -15 -89 -15 -66 0 -92 -4 -101 -15 -10 -12 -10
-18 0 -30 9 -11 35 -15 101 -15 72 0 89 -3 89 -15 0 -8 3 -15 7 -15 11 0 83
52 83 60 0 8 -72 60 -83 60 -4 0 -7 -7 -7 -15z"/>
</g>
</svg>
