<?xml version="1.0" standalone="no"?>
<!DOCTYPE svg PUBLIC "-//W3C//DTD SVG 20010904//EN"
 "http://www.w3.org/TR/2001/REC-SVG-20010904/DTD/svg10.dtd">
<svg version="1.0" xmlns="http://www.w3.org/2000/svg"
 width="840.000000pt" height="840.000000pt" viewBox="0 0 840.000000 840.000000"
 preserveAspectRatio="xMidYMid meet">
<metadata>
Created by potrace 1.16, written by Peter Selinger 2001-2019
</metadata>
<g transform="translate(0.000000,840.000000) scale(0.100000,-0.100000)"
fill="#000000" stroke="none">
<path d="M2410 6323 c-1009 -20 -1809 -149 -2045 -329 -70 -53 -65 89 -65
-1731 0 -1619 0 -1649 20 -1680 81 -134 517 -260 1125 -327 766 -85 1906 -87
2705 -5 595 60 1019 172 1133 299 l37 40 0 1667 0 1666 -43 41 c-112 108 -432
206 -878 270 -524 75 -1197 105 -1989 89z"/>
<path d="M7725 6302 c-27 -10 -230 -134 -450 -277 -220 -142 -557 -359 -750
-483 -883 -569 -835 -534 -877 -619 l-23 -48 -3 -602 c-2 -583 -2 -603 18
-655 11 -29 35 -70 53 -90 19 -23 224 -161 517 -349 267 -172 710 -457 985
-634 275 -177 515 -327 534 -333 19 -7 54 -12 79 -12 38 0 50 5 82 38 75 75
70 -75 70 2022 0 2075 4 1943 -63 2017 -41 44 -97 52 -172 25z"/>
</g>
</svg>
