<?xml version="1.0" standalone="no"?>
<!DOCTYPE svg PUBLIC "-//W3C//DTD SVG 20010904//EN"
 "http://www.w3.org/TR/2001/REC-SVG-20010904/DTD/svg10.dtd">
<svg version="1.0" xmlns="http://www.w3.org/2000/svg"
 width="64.000000pt" height="64.000000pt" viewBox="0 0 64.000000 64.000000"
 preserveAspectRatio="xMidYMid meet">

<g transform="translate(0.000000,64.000000) scale(0.100000,-0.100000)"
fill="#000000" stroke="none">
<path d="M268 604 c-44 -24 -58 -62 -58 -164 l0 -90 110 0 110 0 0 90 c0 103
-14 141 -60 165 -36 19 -67 19 -102 -1z"/>
<path d="M70 350 c0 -33 3 -40 20 -40 11 0 20 5 20 10 0 6 7 10 15 10 10 0 15
-10 15 -27 1 -66 54 -136 124 -163 16 -6 26 -17 26 -30 0 -17 -6 -20 -48 -20
-48 0 -72 -12 -72 -37 0 -10 34 -13 150 -13 116 0 150 3 150 13 0 25 -24 37
-72 37 -41 0 -48 3 -48 20 0 13 12 25 37 35 21 9 46 23 57 33 25 23 56 90 56
125 0 17 5 27 15 27 8 0 15 -4 15 -10 0 -5 9 -10 20 -10 17 0 20 7 20 40 0 33
-3 40 -20 40 -11 0 -20 -4 -20 -10 0 -5 -7 -10 -15 -10 -8 0 -15 5 -15 10 0 6
-9 10 -20 10 -18 0 -20 -7 -20 -57 0 -68 -23 -113 -72 -143 -97 -59 -208 17
-208 143 0 50 -2 57 -20 57 -11 0 -20 -4 -20 -10 0 -5 -7 -10 -15 -10 -8 0
-15 5 -15 10 0 6 -9 10 -20 10 -17 0 -20 -7 -20 -40z"/>
<path d="M210 310 c0 -53 57 -110 110 -110 34 0 78 28 95 60 25 48 20 60 -24
60 -22 0 -43 -4 -46 -10 -9 -15 -45 -12 -51 5 -4 10 -20 15 -45 15 -33 0 -39
-3 -39 -20z"/>
</g>
</svg>
